<svg width="99" height="45" viewBox="0 0 99 45" fill="none" xmlns="http://www.w3.org/2000/svg">
<path d="M19.7812 24.116L14.859 34.5593L9.93726 24.116H10.7157L14.859 32.8739L19.0035 24.116H19.7812Z" fill="#009A4C"/>
<path d="M19.7812 24.116L14.859 34.5593L9.93726 24.116H10.7157L14.859 32.8739L19.0035 24.116H19.7812Z" stroke="#009A4C" stroke-width="0.144992" stroke-miterlimit="10"/>
<path d="M20.8882 24.1158H21.584V34.1853H20.8882V24.1158Z" fill="#009A4C" stroke="#009A4C" stroke-width="0.144992" stroke-miterlimit="10"/>
<path d="M27.7468 33.7977C28.8771 33.7977 29.8474 33.3557 30.657 32.4722C31.4625 31.5928 31.88 30.526 31.9097 29.2708V29.0238C31.88 27.7687 31.4625 26.7014 30.657 25.8225C29.8474 24.9385 28.8771 24.497 27.7468 24.497C26.5955 24.497 25.6128 24.9528 24.7987 25.8647C23.9846 26.7721 23.5772 27.8674 23.5772 29.1507C23.5772 30.4293 23.9846 31.5246 24.7987 32.4366C25.6128 33.344 26.5955 33.7977 27.7468 33.7977ZM32.6055 32.6978C32.5886 34.1409 32.1121 35.3818 31.176 36.4206C30.2267 37.4833 29.0814 38.0144 27.74 38.0144C26.3946 38.0144 25.2474 37.4833 24.2985 36.4206C24.0961 36.2001 23.917 35.9673 23.7612 35.7225L24.3113 35.2433C24.4461 35.4546 24.6064 35.6685 24.7919 35.8849C25.606 36.7827 26.5887 37.2317 27.74 37.2317C28.8917 37.2317 29.8744 36.7827 30.6882 35.8849C31.494 34.9871 31.9011 33.9153 31.9097 32.6693V31.936C31.4752 32.74 30.8951 33.3745 30.1696 33.8399C29.4231 34.3288 28.6157 34.5732 27.7468 34.5732C26.4055 34.5732 25.2583 34.0421 24.3053 32.9798C23.3564 31.9218 22.8813 30.6457 22.8813 29.1507C22.8813 27.6557 23.3564 26.377 24.3053 25.3148C25.2583 24.2572 26.4055 23.7281 27.7468 23.7281C29.0712 23.7281 30.2098 24.2358 31.1632 25.2512C32.1249 26.2808 32.6055 27.5242 32.6055 28.9816V32.6978Z" fill="#009A4C"/>
<path d="M27.7468 33.7977C28.8771 33.7977 29.8474 33.3557 30.657 32.4722C31.4625 31.5928 31.88 30.526 31.9097 29.2708V29.0238C31.88 27.7687 31.4625 26.7014 30.657 25.8225C29.8474 24.9385 28.8771 24.497 27.7468 24.497C26.5955 24.497 25.6128 24.9528 24.7987 25.8647C23.9846 26.7721 23.5772 27.8674 23.5772 29.1507C23.5772 30.4293 23.9846 31.5246 24.7987 32.4366C25.6128 33.344 26.5955 33.7977 27.7468 33.7977ZM32.6055 32.6978C32.5886 34.1409 32.1121 35.3818 31.176 36.4206C30.2267 37.4833 29.0814 38.0144 27.74 38.0144C26.3946 38.0144 25.2474 37.4833 24.2985 36.4206C24.0961 36.2001 23.917 35.9673 23.7612 35.7225L24.3113 35.2433C24.4461 35.4546 24.6064 35.6685 24.7919 35.8849C25.606 36.7827 26.5887 37.2317 27.74 37.2317C28.8917 37.2317 29.8744 36.7827 30.6882 35.8849C31.494 34.9871 31.9011 33.9153 31.9097 32.6693V31.936C31.4752 32.74 30.8951 33.3745 30.1696 33.8399C29.4231 34.3288 28.6157 34.5732 27.7468 34.5732C26.4055 34.5732 25.2583 34.0421 24.3053 32.9798C23.3564 31.9218 22.8813 30.6457 22.8813 29.1507C22.8813 27.6557 23.3564 26.377 24.3053 25.3148C25.2583 24.2572 26.4055 23.7281 27.7468 23.7281C29.0712 23.7281 30.2098 24.2358 31.1632 25.2512C32.1249 26.2808 32.6055 27.5242 32.6055 28.9816V32.6978Z" stroke="#009A4C" stroke-width="0.144992" stroke-miterlimit="10"/>
<path d="M42.626 28.6572C42.5122 27.4866 42.0627 26.5043 41.2783 25.7099C40.4811 24.9105 39.5487 24.5108 38.4819 24.5108C37.4106 24.5108 36.4786 24.9105 35.6855 25.7099C34.8969 26.5043 34.4478 27.4866 34.3382 28.6572H42.626ZM38.4819 23.7352C39.7429 23.7352 40.8378 24.2124 41.7657 25.1666C42.6891 26.1117 43.208 27.2752 43.3218 28.6572C43.3387 28.8502 43.3474 29.0167 43.3474 29.1578L43.3406 29.2988L43.3346 29.4328H34.3258C34.3889 30.6553 34.8192 31.6895 35.616 32.5354C36.4219 33.3816 37.3768 33.8048 38.4819 33.8048C39.3212 33.8048 40.0913 33.544 40.7913 33.0221C41.4702 32.5144 41.9722 31.8444 42.2971 31.0123H43.0368C42.691 32.0653 42.1089 32.9187 41.2907 33.5721C40.4514 34.2442 39.5153 34.5803 38.4819 34.5803C37.1406 34.5803 35.9934 34.0492 35.0404 32.987C34.0911 31.9289 33.6172 30.6528 33.6172 29.1578C33.6172 27.6628 34.0911 26.3867 35.0404 25.329C35.9934 24.2664 37.1406 23.7352 38.4819 23.7352" fill="#009A4C"/>
<path d="M42.626 28.6572C42.5122 27.4866 42.0627 26.5043 41.2783 25.7099C40.4811 24.9105 39.5487 24.5108 38.4819 24.5108C37.4106 24.5108 36.4786 24.9105 35.6855 25.7099C34.8969 26.5043 34.4478 27.4866 34.3382 28.6572H42.626ZM38.4819 23.7352C39.7429 23.7352 40.8378 24.2124 41.7657 25.1666C42.6891 26.1117 43.208 27.2752 43.3218 28.6572C43.3387 28.8502 43.3474 29.0167 43.3474 29.1578L43.3406 29.2988L43.3346 29.4328H34.3258C34.3889 30.6553 34.8192 31.6895 35.616 32.5354C36.4219 33.3816 37.3768 33.8048 38.4819 33.8048C39.3212 33.8048 40.0913 33.544 40.7913 33.0221C41.4702 32.5144 41.9722 31.8444 42.2971 31.0123H43.0368C42.691 32.0653 42.1089 32.9187 41.2907 33.5721C40.4514 34.2442 39.5153 34.5803 38.4819 34.5803C37.1406 34.5803 35.9934 34.0492 35.0404 32.987C34.0911 31.9289 33.6172 30.6528 33.6172 29.1578C33.6172 27.6628 34.0911 26.3867 35.0404 25.329C35.9934 24.2664 37.1406 23.7352 38.4819 23.7352V23.7352Z" stroke="#009A4C" stroke-width="0.144992" stroke-miterlimit="10"/>
<path d="M46.2767 25.8719C45.4626 26.7792 45.0559 27.8746 45.0559 29.1578C45.0559 30.441 45.4626 31.5363 46.2767 32.4437C47.0908 33.3511 48.0735 33.8048 49.2248 33.8048C50.3761 33.8048 51.3592 33.3511 52.1729 32.4437C52.987 31.5363 53.3945 30.441 53.3945 29.1578C53.3945 27.8746 52.987 26.7792 52.1729 25.8719C51.3592 24.9645 50.3761 24.5108 49.2248 24.5108C48.0735 24.5108 47.0908 24.9645 46.2767 25.8719ZM45.7833 32.987C44.8344 31.9289 44.3601 30.6528 44.3601 29.1578C44.3601 27.6628 44.8344 26.3867 45.7833 25.329C46.7363 24.2664 47.8835 23.7352 49.2248 23.7352C50.5661 23.7352 51.7114 24.2664 52.6603 25.329C53.6138 26.3867 54.0903 27.6628 54.0903 29.1578C54.0903 30.6528 53.6138 31.9289 52.6603 32.987C51.7114 34.0492 50.5661 34.5803 49.2248 34.5803C47.8835 34.5803 46.7363 34.0492 45.7833 32.987" fill="#009A4C"/>
<path d="M46.2767 25.8719C45.4626 26.7792 45.0559 27.8746 45.0559 29.1578C45.0559 30.441 45.4626 31.5363 46.2767 32.4437C47.0908 33.3511 48.0735 33.8048 49.2248 33.8048C50.3761 33.8048 51.3592 33.3511 52.1729 32.4437C52.987 31.5363 53.3945 30.441 53.3945 29.1578C53.3945 27.8746 52.987 26.7792 52.1729 25.8719C51.3592 24.9645 50.3761 24.5108 49.2248 24.5108C48.0735 24.5108 47.0908 24.9645 46.2767 25.8719ZM45.7833 32.987C44.8344 31.9289 44.3601 30.6528 44.3601 29.1578C44.3601 27.6628 44.8344 26.3867 45.7833 25.329C46.7363 24.2664 47.8835 23.7352 49.2248 23.7352C50.5661 23.7352 51.7114 24.2664 52.6603 25.329C53.6138 26.3867 54.0903 27.6628 54.0903 29.1578C54.0903 30.6528 53.6138 31.9289 52.6603 32.987C51.7114 34.0492 50.5661 34.5803 49.2248 34.5803C47.8835 34.5803 46.7363 34.0492 45.7833 32.987V32.987Z" stroke="#009A4C" stroke-width="0.144992" stroke-miterlimit="10"/>
<path d="M60.2943 25.314V31.9876H61.9826C63.7704 31.9876 64.9765 30.6432 64.9765 28.6824V28.6506C64.9765 26.6902 63.7704 25.314 61.9826 25.314H60.2943ZM58.1096 23.1159H61.9826C65.1042 23.1159 67.2608 25.504 67.2608 28.6192V28.6506C67.2608 31.7662 65.1042 34.1853 61.9826 34.1853H58.1096V23.1159Z" fill="#2A338C"/>
<path d="M73.3486 29.5521L72.029 25.9623L70.7095 29.5521H73.3486ZM71.0501 23.0368H73.0647L77.3211 34.1853H75.0369L74.1289 31.7026H69.9292L69.0212 34.1853H66.7937L71.0501 23.0368Z" fill="#2A338C"/>
<path d="M77.1819 32.572L78.4733 30.8485C79.3666 31.6709 80.3031 32.1924 81.4383 32.1924C82.3316 32.1924 82.8708 31.7973 82.8708 31.149V31.1176C82.8708 30.5007 82.5306 30.1843 80.8705 29.7097C78.8702 29.1409 77.5788 28.5239 77.5788 26.3258V26.2944C77.5788 24.2859 79.0264 22.9574 81.0549 22.9574C82.5021 22.9574 83.7368 23.4634 84.7435 24.365L83.6091 26.1994C82.7293 25.5197 81.8633 25.1083 81.0267 25.1083C80.1897 25.1083 79.75 25.5352 79.75 26.073V26.1044C79.75 26.8318 80.1751 27.0691 81.8919 27.5596C83.9069 28.1443 85.042 28.9509 85.042 30.8799V30.9121C85.042 33.1098 83.5381 34.3433 81.3955 34.3433C79.8916 34.3433 78.3737 33.7581 77.1819 32.572Z" fill="#2A338C"/>
<path d="M86.0933 23.1159H88.278V27.4963H92.3075V23.1159H94.4926V34.1853H92.3075V29.7417H88.278V34.1853H86.0933V23.1159Z" fill="#2A338C"/>
<path d="M3.54555 31.8691C3.52189 30.5926 3.98114 29.3131 4.90414 28.3978C6.4486 26.8672 8.40462 27.3678 9.20896 27.6721C7.18234 29.7953 5.31419 29.8623 5.31419 29.8623C7.60817 30.0121 9.58034 27.8328 9.58034 27.8328C8.40688 31.8273 4.94732 30.4796 3.54555 31.8691Z" fill="#65AE45"/>
<path d="M0 24.816C0.8494 23.4545 2.20836 22.5007 3.80465 22.3249C6.47602 22.0307 8.18796 24.2209 8.82482 25.2249C5.24172 25.7314 3.23275 24.2125 3.23275 24.2125C5.54025 26.3215 9.10495 25.7096 9.10495 25.7096C5.1362 28.9085 2.42428 24.5486 0 24.816Z" fill="#8CC63F"/>
<path d="M1.10547 14.389C2.93044 13.6813 5.01113 13.8353 6.80906 15.0089C9.81726 16.9722 10.1158 20.7302 10.0974 22.327C5.98595 19.8103 4.91575 16.5056 4.91575 16.5056C5.89545 20.6842 10.0602 23.0745 10.0602 23.0745C3.69948 23.059 3.83579 16.1707 1.10547 14.389Z" fill="#8CC63F"/>
<path d="M9.40868 4.37407C11.8104 5.1831 13.8915 7.11547 14.9771 9.87822C16.7927 14.5005 14.5329 18.703 13.4199 20.365C10.8232 14.2226 11.9625 9.8393 11.9625 9.8393C10.1297 15.0639 12.8682 21.1184 12.8682 21.1184C6.19621 15.6904 11.0568 8.56905 9.40868 4.37407Z" fill="#B3D334"/>
<path d="M24.9911 0.916679C26.9606 3.81043 27.8235 7.61115 27.0718 11.4374C25.8138 17.8385 20.5612 20.3313 18.2537 21.1307C19.7325 12.4678 23.931 8.8316 23.931 8.8316C18.4276 12.7616 17.158 21.4534 17.158 21.4534C13.8655 10.073 23.8499 6.72637 24.9911 0.916679Z" fill="#8CC63F"/>
<path d="M6.99907 42.3458H6.17333V43.252H7.03737C7.38885 43.252 7.60889 43.0963 7.60889 42.7991V42.7895C7.60889 42.5112 7.40987 42.3458 6.99907 42.3458ZM7.44367 41.397C7.44367 41.1375 7.25742 40.9772 6.92284 40.9772H6.17333V41.8549H6.88491C7.21912 41.8549 7.44367 41.7088 7.44367 41.4067V41.397ZM5.66113 40.4624H6.99081C7.32914 40.4624 7.59613 40.5667 7.76548 40.7554C7.89691 40.9015 7.9645 41.0856 7.9645 41.3029V41.3121C7.9645 41.7088 7.76135 41.921 7.54093 42.0487C7.88827 42.1805 8.12972 42.4024 8.12972 42.851V42.8602C8.12972 43.4504 7.69338 43.7664 7.03286 43.7664H5.66113V40.4624Z" fill="#2A338C"/>
<path d="M8.46436 42.8603V41.2745H8.97655V42.6904C8.97655 43.0776 9.15041 43.2948 9.45495 43.2948C9.7516 43.2948 9.95888 43.0679 9.95888 42.6808V41.2745H10.4756V43.7665H9.95888V43.3793C9.81506 43.6154 9.6074 43.8184 9.26043 43.8184C8.7565 43.8184 8.46436 43.4408 8.46436 42.8603Z" fill="#2A338C"/>
<path d="M10.7642 43.4408L10.9928 43.0537C11.2384 43.2567 11.4968 43.3604 11.7255 43.3604C11.9455 43.3604 12.0724 43.2567 12.0724 43.0917V43.0821C12.0724 42.8888 11.8355 42.8222 11.573 42.7326C11.2426 42.6288 10.8742 42.4778 10.8742 42.0061V41.9964C10.8742 41.5197 11.2257 41.2322 11.6703 41.2322C11.9496 41.2322 12.2546 41.3406 12.4919 41.5151L12.2887 41.9211C12.0724 41.7746 11.8437 41.6851 11.6575 41.6851C11.4585 41.6851 11.3443 41.7935 11.3443 41.9307V41.9399C11.3443 42.1241 11.5858 42.1994 11.8483 42.294C12.1742 42.407 12.5426 42.5723 12.5426 43.0206V43.0302C12.5426 43.5542 12.1783 43.8137 11.7127 43.8137C11.395 43.8137 11.0435 43.6907 10.7642 43.4408Z" fill="#2A338C"/>
<path d="M12.9241 41.2749H13.4404V43.7668H12.9241V41.2749ZM12.9072 40.3499H13.4577V40.8928H12.9072V40.3499Z" fill="#2A338C"/>
<path d="M13.9363 41.2744H14.4526V41.6569C14.5968 41.4255 14.8045 41.2225 15.1514 41.2225C15.6554 41.2225 15.9475 41.6 15.9475 42.1759V43.7664H15.4353V42.3505C15.4353 41.9633 15.2614 41.7419 14.9569 41.7419C14.6603 41.7419 14.4526 41.9729 14.4526 42.3601V43.7664H13.9363V41.2744Z" fill="#2A338C"/>
<path d="M17.9298 42.3457C17.896 41.9774 17.7011 41.6899 17.3624 41.6899C17.0492 41.6899 16.8288 41.9586 16.7822 42.3457H17.9298ZM16.2742 42.5295V42.5203C16.2742 41.8075 16.727 41.2224 17.3665 41.2224C18.0781 41.2224 18.4378 41.8456 18.4378 42.563C18.4378 42.6149 18.4337 42.6668 18.4296 42.7233H16.7867C16.8416 43.1292 17.0999 43.3557 17.43 43.3557C17.6801 43.3557 17.8577 43.2519 18.0357 43.0585L18.3365 43.3557C18.1247 43.6386 17.8325 43.8228 17.4217 43.8228C16.7736 43.8228 16.2742 43.2992 16.2742 42.5295" fill="#2A338C"/>
<path d="M18.6038 43.4408L18.8324 43.0537C19.078 43.2567 19.3364 43.3604 19.5651 43.3604C19.7851 43.3604 19.912 43.2567 19.912 43.0917V43.0821C19.912 42.8888 19.6751 42.8222 19.4126 42.7326C19.0822 42.6288 18.7138 42.4778 18.7138 42.0061V41.9964C18.7138 41.5197 19.0653 41.2322 19.5099 41.2322C19.7892 41.2322 20.0942 41.3406 20.3315 41.5151L20.1283 41.9211C19.912 41.7746 19.6833 41.6851 19.4971 41.6851C19.2981 41.6851 19.1839 41.7935 19.1839 41.9307V41.9399C19.1839 42.1241 19.4254 42.1994 19.6879 42.294C20.0138 42.407 20.3822 42.5723 20.3822 43.0206V43.0302C20.3822 43.5542 20.0179 43.8137 19.5523 43.8137C19.2346 43.8137 18.8831 43.6907 18.6038 43.4408Z" fill="#2A338C"/>
<path d="M20.5132 43.4408L20.7419 43.0537C20.9875 43.2567 21.2458 43.3604 21.4745 43.3604C21.6945 43.3604 21.8215 43.2567 21.8215 43.0917V43.0821C21.8215 42.8888 21.5845 42.8222 21.322 42.7326C20.9916 42.6288 20.6232 42.4778 20.6232 42.0061V41.9964C20.6232 41.5197 20.9747 41.2322 21.4193 41.2322C21.6987 41.2322 22.0036 41.3406 22.2409 41.5151L22.0377 41.9211C21.8215 41.7746 21.5928 41.6851 21.4065 41.6851C21.2075 41.6851 21.0933 41.7935 21.0933 41.9307V41.9399C21.0933 42.1241 21.3348 42.1994 21.5973 42.294C21.9232 42.407 22.2916 42.5723 22.2916 43.0206V43.0302C22.2916 43.5542 21.9273 43.8137 21.4617 43.8137C21.144 43.8137 20.7926 43.6907 20.5132 43.4408Z" fill="#2A338C"/>
<path d="M23.8376 40.4629H24.3585V43.7668H23.8376V40.4629Z" fill="#2A338C"/>
<path d="M24.9177 41.2744H25.434V41.6569C25.5782 41.4255 25.7859 41.2225 26.1329 41.2225C26.6368 41.2225 26.9289 41.6 26.9289 42.1759V43.7664H26.4168V42.3505C26.4168 41.9633 26.2429 41.7419 25.9384 41.7419C25.6417 41.7419 25.434 41.9729 25.434 42.3601V43.7664H24.9177V41.2744Z" fill="#2A338C"/>
<path d="M27.4842 43.0775V41.7654H27.2007V41.2744H27.4842V40.5905H27.9968V41.2744H28.598V41.7654H27.9968V42.9879C27.9968 43.2097 28.0981 43.2993 28.272 43.2993C28.3862 43.2993 28.4879 43.2708 28.5893 43.2143V43.6814C28.4624 43.7618 28.3227 43.8091 28.1278 43.8091C27.7508 43.8091 27.4842 43.6249 27.4842 43.0775Z" fill="#2A338C"/>
<path d="M30.419 42.3457C30.3852 41.9774 30.1904 41.6899 29.8517 41.6899C29.5385 41.6899 29.3181 41.9586 29.2715 42.3457H30.419ZM28.7634 42.5295V42.5203C28.7634 41.8075 29.2163 41.2224 29.8558 41.2224C30.5674 41.2224 30.9271 41.8456 30.9271 42.563C30.9271 42.6149 30.923 42.6668 30.9188 42.7233H29.276C29.3308 43.1292 29.5892 43.3557 29.9192 43.3557C30.1693 43.3557 30.3469 43.2519 30.5249 43.0585L30.8257 43.3557C30.6139 43.6386 30.3218 43.8228 29.911 43.8228C29.2629 43.8228 28.7634 43.2992 28.7634 42.5295" fill="#2A338C"/>
<path d="M31.3003 40.3214H31.8166V43.7664H31.3003V40.3214Z" fill="#2A338C"/>
<path d="M32.3425 40.3214H32.8589V43.7664H32.3425V40.3214Z" fill="#2A338C"/>
<path d="M33.3842 41.2749H33.9005V43.7668H33.3842V41.2749ZM33.3669 40.3499H33.9174V40.8928H33.3669V40.3499Z" fill="#2A338C"/>
<path d="M36.0944 42.3972V42.388C36.0944 41.9821 35.7937 41.7083 35.4381 41.7083C35.0825 41.7083 34.8031 41.977 34.8031 42.388V42.3972C34.8031 42.8032 35.0866 43.0815 35.4381 43.0815C35.7937 43.0815 36.0944 42.8032 36.0944 42.3972ZM34.3964 44.2329L34.5868 43.8035C34.8282 43.9688 35.0779 44.063 35.3829 44.063C35.8402 44.063 36.0903 43.8035 36.0903 43.3034V43.1146C35.9037 43.3787 35.6709 43.5675 35.3025 43.5675C34.773 43.5675 34.2864 43.1334 34.2864 42.4018V42.3926C34.2864 41.656 34.7817 41.222 35.3025 41.222C35.6795 41.222 35.9123 41.4154 36.0858 41.6468V41.2739H36.5984V43.2561C36.5984 43.6763 36.5011 43.9877 36.3145 44.1953C36.1113 44.4217 35.7978 44.5305 35.3956 44.5305C35.0273 44.5305 34.6844 44.4267 34.3964 44.2329" fill="#2A338C"/>
<path d="M38.6058 42.3457C38.572 41.9774 38.3771 41.6899 38.0384 41.6899C37.7252 41.6899 37.5048 41.9586 37.4583 42.3457H38.6058ZM36.9502 42.5295V42.5203C36.9502 41.8075 37.4031 41.2224 38.0425 41.2224C38.7541 41.2224 39.1139 41.8456 39.1139 42.563C39.1139 42.6149 39.1097 42.6668 39.1056 42.7233H37.4628C37.5176 43.1292 37.7759 43.3557 38.106 43.3557C38.3561 43.3557 38.5337 43.2519 38.7117 43.0585L39.0125 43.3557C38.8007 43.6386 38.5086 43.8228 38.0977 43.8228C37.4496 43.8228 36.9502 43.2992 36.9502 42.5295" fill="#2A338C"/>
<path d="M39.457 41.2744H39.9734V41.6569C40.1176 41.4255 40.3252 41.2225 40.6722 41.2225C41.1761 41.2225 41.4683 41.6 41.4683 42.1759V43.7664H40.9561V42.3505C40.9561 41.9633 40.7822 41.7419 40.4777 41.7419C40.181 41.7419 39.9734 41.9729 39.9734 42.3601V43.7664H39.457V41.2744Z" fill="#2A338C"/>
<path d="M41.7947 42.5345V42.5249C41.7947 41.8171 42.2858 41.2224 42.9591 41.2224C43.3782 41.2224 43.6411 41.3969 43.8525 41.6518L43.531 42.0344C43.3741 41.8548 43.2092 41.7225 42.955 41.7225C42.5825 41.7225 42.3072 42.0812 42.3072 42.5157V42.5249C42.3072 42.9685 42.5825 43.3226 42.976 43.3226C43.2175 43.3226 43.391 43.2 43.5562 43.0158L43.8652 43.3557C43.6452 43.6294 43.3868 43.8228 42.9509 43.8228C42.2858 43.8228 41.7947 43.2422 41.7947 42.5345Z" fill="#2A338C"/>
<path d="M45.6356 42.3457C45.6018 41.9774 45.4069 41.6899 45.0682 41.6899C44.755 41.6899 44.5346 41.9586 44.488 42.3457H45.6356ZM43.98 42.5295V42.5203C43.98 41.8075 44.4328 41.2224 45.0723 41.2224C45.7839 41.2224 46.1437 41.8456 46.1437 42.563C46.1437 42.6149 46.1395 42.6668 46.1354 42.7233H44.4925C44.5474 43.1292 44.8057 43.3557 45.1358 43.3557C45.3859 43.3557 45.5635 43.2519 45.7415 43.0585L46.0423 43.3557C45.8305 43.6386 45.5383 43.8228 45.1275 43.8228C44.4794 43.8228 43.98 43.2992 43.98 42.5295" fill="#2A338C"/>
<path d="M47.7072 41.7653H47.4233V41.2886H47.7072V41.1045C47.7072 40.8312 47.7707 40.6232 47.8893 40.4913C48.0076 40.3591 48.1729 40.2929 48.3888 40.2929C48.5709 40.2929 48.6937 40.3214 48.8082 40.3591V40.8404C48.7065 40.8027 48.6175 40.7793 48.5074 40.7793C48.3125 40.7793 48.2112 40.9019 48.2112 41.1564V41.2937H48.8037V41.7653H48.2194V43.7664H47.7072V41.7653Z" fill="#2A338C"/>
<path d="M50.7224 42.5345V42.5249C50.7224 42.0863 50.4389 41.7225 50.0363 41.7225C49.6259 41.7225 49.363 42.0812 49.363 42.5157V42.5249C49.363 42.9593 49.6469 43.3226 50.0449 43.3226C50.4599 43.3226 50.7224 42.9639 50.7224 42.5345ZM48.8508 42.5345V42.5249C48.8508 41.8121 49.3589 41.2224 50.0449 41.2224C50.7306 41.2224 51.2346 41.8029 51.2346 42.5157V42.5249C51.2346 43.2326 50.7265 43.8228 50.0363 43.8228C49.3548 43.8228 48.8508 43.2422 48.8508 42.5345Z" fill="#2A338C"/>
<path d="M51.5825 41.2744H52.0988V41.8361C52.2389 41.4632 52.4973 41.2083 52.8908 41.2275V41.8315H52.8611C52.4124 41.8315 52.0988 42.1571 52.0988 42.818V43.7664H51.5825V41.2744Z" fill="#2A338C"/>
<path d="M54.3267 40.4629H54.8475V41.8366H56.2617V40.4629H56.7829V43.7668H56.2617V42.3744H54.8475V43.7668H54.3267V40.4629Z" fill="#2A338C"/>
<path d="M58.849 42.3457C58.8152 41.9774 58.6203 41.6899 58.2816 41.6899C57.9684 41.6899 57.748 41.9586 57.7014 42.3457H58.849ZM57.1934 42.5295V42.5203C57.1934 41.8075 57.6462 41.2224 58.2857 41.2224C58.9973 41.2224 59.357 41.8456 59.357 42.563C59.357 42.6149 59.3529 42.6668 59.3488 42.7233H57.7059C57.7608 43.1292 58.0191 43.3557 58.3492 43.3557C58.5993 43.3557 58.7769 43.2519 58.9549 43.0585L59.2557 43.3557C59.0439 43.6386 58.7517 43.8228 58.3409 43.8228C57.6928 43.8228 57.1934 43.2992 57.1934 42.5295" fill="#2A338C"/>
<path d="M61.0904 42.8695V42.6996C60.959 42.6431 60.7855 42.6004 60.5824 42.6004C60.2519 42.6004 60.0574 42.7561 60.0574 43.016V43.0252C60.0574 43.2659 60.2478 43.4028 60.4934 43.4028C60.8321 43.4028 61.0904 43.1855 61.0904 42.8695ZM59.5535 43.0491V43.0395C59.5535 42.5016 59.9342 42.2371 60.4806 42.2371C60.7307 42.2371 60.9083 42.2794 61.0822 42.3409V42.2794C61.0822 41.9257 60.8869 41.737 60.5272 41.737C60.2774 41.737 60.0912 41.7981 59.8877 41.8927L59.748 41.4444C59.9981 41.3214 60.2391 41.2414 60.5951 41.2414C60.9293 41.2414 61.1794 41.3406 61.336 41.5198C61.5012 41.6993 61.5775 41.9634 61.5775 42.289V43.7665H61.0777V43.4547C60.9252 43.6576 60.6924 43.8184 60.3492 43.8184C59.9301 43.8184 59.5535 43.5492 59.5535 43.0491" fill="#2A338C"/>
<path d="M62.0469 40.3214H62.5632V43.7664H62.0469V40.3214Z" fill="#2A338C"/>
<path d="M63.1693 43.0775V41.7654H62.8857V41.2744H63.1693V40.5905H63.6818V41.2744H64.283V41.7654H63.6818V42.9879C63.6818 43.2097 63.7832 43.2993 63.9571 43.2993C64.0712 43.2993 64.173 43.2708 64.2744 43.2143V43.6814C64.1475 43.7618 64.0078 43.8091 63.8129 43.8091C63.4359 43.8091 63.1693 43.6249 63.1693 43.0775Z" fill="#2A338C"/>
<path d="M64.6311 40.3214H65.1474V41.6569C65.2916 41.4259 65.4993 41.2225 65.8462 41.2225C66.3502 41.2225 66.6423 41.6004 66.6423 42.1759V43.7664H66.1301V42.3509C66.1301 41.9637 65.9563 41.7419 65.6517 41.7419C65.3551 41.7419 65.1474 41.9729 65.1474 42.3601V43.7664H64.6311V40.3214Z" fill="#2A338C"/>
<path d="M68.1206 42.1235V42.1143C68.1206 41.1751 68.7515 40.4058 69.6448 40.4058C70.1953 40.4058 70.5257 40.618 70.8092 40.9202L70.475 41.3496C70.2332 41.1039 69.9835 40.9436 69.6407 40.9436C69.0819 40.9436 68.667 41.458 68.667 42.1047V42.1143C68.667 42.7605 69.0774 43.2845 69.6448 43.2845C70.009 43.2845 70.2419 43.1242 70.4961 42.8597L70.8306 43.2376C70.5216 43.5963 70.1825 43.8228 69.6279 43.8228C68.7601 43.8228 68.1206 43.0723 68.1206 42.1235Z" fill="#2A338C"/>
<path d="M72.5379 42.8695V42.6996C72.4065 42.6431 72.233 42.6004 72.0299 42.6004C71.6994 42.6004 71.5049 42.7561 71.5049 43.016V43.0252C71.5049 43.2659 71.6953 43.4028 71.9409 43.4028C72.2796 43.4028 72.5379 43.1855 72.5379 42.8695ZM71.001 43.0491V43.0395C71.001 42.5016 71.3817 42.2371 71.9281 42.2371C72.1782 42.2371 72.3558 42.2794 72.5297 42.3409V42.2794C72.5297 41.9257 72.3344 41.737 71.9747 41.737C71.725 41.737 71.5387 41.7981 71.3352 41.8927L71.1955 41.4444C71.4456 41.3214 71.6867 41.2414 72.0426 41.2414C72.3768 41.2414 72.6269 41.3406 72.7835 41.5198C72.9487 41.6993 73.025 41.9634 73.025 42.289V43.7665H72.5252V43.4547C72.3727 43.6576 72.1399 43.8184 71.7967 43.8184C71.3776 43.8184 71.001 43.5492 71.001 43.0491" fill="#2A338C"/>
<path d="M73.4656 41.2744H73.9819V41.8361C74.122 41.4632 74.3803 41.2083 74.7738 41.2275V41.8315H74.7442C74.2954 41.8315 73.9819 42.1571 73.9819 42.818V43.7664H73.4656V41.2744Z" fill="#2A338C"/>
<path d="M76.5057 42.3457C76.4719 41.9774 76.277 41.6899 75.9383 41.6899C75.6251 41.6899 75.4047 41.9586 75.3582 42.3457H76.5057ZM74.8501 42.5295V42.5203C74.8501 41.8075 75.303 41.2224 75.9425 41.2224C76.654 41.2224 77.0138 41.8456 77.0138 42.563C77.0138 42.6149 77.0096 42.6668 77.0055 42.7233H75.3627C75.4175 43.1292 75.6758 43.3557 76.0059 43.3557C76.256 43.3557 76.4336 43.2519 76.6116 43.0585L76.9124 43.3557C76.7006 43.6386 76.4085 43.8228 75.9977 43.8228C75.3495 43.8228 74.8501 43.2992 74.8501 42.5295" fill="#2A338C"/>
<path d="M78.522 40.4629H80.7198V40.9823H79.0428V41.8412H80.5291V42.3648H79.0428V43.2474H80.7409V43.7668H78.522V40.4629Z" fill="#2A338C"/>
<path d="M82.0375 42.1098L82.5583 41.2744H83.1047L82.3169 42.4923L83.1385 43.7664H82.5794L82.0293 42.8791L81.4829 43.7664H80.9365L81.754 42.4969L80.9662 41.2744H81.5253L82.0375 42.1098Z" fill="#2A338C"/>
<path d="M83.1477 42.5345V42.5249C83.1477 41.8171 83.6389 41.2224 84.3122 41.2224C84.7312 41.2224 84.9941 41.3969 85.2055 41.6518L84.8841 42.0344C84.7275 41.8548 84.5619 41.7225 84.308 41.7225C83.9355 41.7225 83.6603 42.0812 83.6603 42.5157V42.5249C83.6603 42.9685 83.9355 43.3226 84.3291 43.3226C84.5705 43.3226 84.744 43.2 84.9092 43.0158L85.2183 43.3557C84.9982 43.6294 84.7399 43.8228 84.3039 43.8228C83.6389 43.8228 83.1477 43.2422 83.1477 42.5345Z" fill="#2A338C"/>
<path d="M86.9891 42.3457C86.9549 41.9774 86.7604 41.6899 86.4213 41.6899C86.1082 41.6899 85.8877 41.9586 85.8412 42.3457H86.9891ZM85.3335 42.5295V42.5203C85.3335 41.8075 85.7864 41.2224 86.4258 41.2224C87.1374 41.2224 87.4972 41.8456 87.4972 42.563C87.4972 42.6149 87.493 42.6668 87.4885 42.7233H85.8457C85.9009 43.1292 86.1589 43.3557 86.4893 43.3557C86.739 43.3557 86.917 43.2519 87.0946 43.0585L87.3954 43.3557C87.184 43.6386 86.8915 43.8228 86.4807 43.8228C85.8329 43.8228 85.3335 43.2992 85.3335 42.5295" fill="#2A338C"/>
<path d="M87.8699 40.3214H88.3866V43.7664H87.8699V40.3214Z" fill="#2A338C"/>
<path d="M88.9116 40.3214H89.4283V43.7664H88.9116V40.3214Z" fill="#2A338C"/>
<path d="M91.461 42.3457C91.4269 41.9774 91.2324 41.6899 90.8933 41.6899C90.5801 41.6899 90.3597 41.9586 90.3131 42.3457H91.461ZM89.8054 42.5295V42.5203C89.8054 41.8075 90.2583 41.2224 90.8978 41.2224C91.6094 41.2224 91.9691 41.8456 91.9691 42.563C91.9691 42.6149 91.965 42.6668 91.9605 42.7233H90.3176C90.3728 43.1292 90.6308 43.3557 90.9612 43.3557C91.2109 43.3557 91.3889 43.2519 91.5666 43.0585L91.8673 43.3557C91.6559 43.6386 91.3634 43.8228 90.9526 43.8228C90.3048 43.8228 89.8054 43.2992 89.8054 42.5295" fill="#2A338C"/>
<path d="M92.3125 41.2744H92.8292V41.6569C92.973 41.4255 93.1807 41.2225 93.5276 41.2225C94.032 41.2225 94.3241 41.6 94.3241 42.1759V43.7664H93.8115V42.3505C93.8115 41.9633 93.6377 41.7419 93.3331 41.7419C93.0369 41.7419 92.8292 41.9729 92.8292 42.3601V43.7664H92.3125V41.2744Z" fill="#2A338C"/>
<path d="M94.6509 42.5345V42.5249C94.6509 41.8171 95.142 41.2224 95.8153 41.2224C96.2344 41.2224 96.4969 41.3969 96.7083 41.6518L96.3869 42.0344C96.2303 41.8548 96.065 41.7225 95.8112 41.7225C95.4383 41.7225 95.1631 42.0812 95.1631 42.5157V42.5249C95.1631 42.9685 95.4383 43.3226 95.8322 43.3226C96.0733 43.3226 96.2472 43.2 96.412 43.0158L96.7214 43.3557C96.5014 43.6294 96.2427 43.8228 95.8067 43.8228C95.142 43.8228 94.6509 43.2422 94.6509 42.5345Z" fill="#2A338C"/>
<path d="M98.492 42.3457C98.4579 41.9774 98.2634 41.6899 97.9243 41.6899C97.6111 41.6899 97.3907 41.9586 97.3441 42.3457H98.492ZM96.8364 42.5295V42.5203C96.8364 41.8075 97.2893 41.2224 97.9288 41.2224C98.6404 41.2224 99.0001 41.8456 99.0001 42.563C99.0001 42.6149 98.996 42.6668 98.9915 42.7233H97.3486C97.4038 43.1292 97.6618 43.3557 97.9922 43.3557C98.242 43.3557 98.4199 43.2519 98.5976 43.0585L98.8983 43.3557C98.6869 43.6386 98.3944 43.8228 97.9836 43.8228C97.3359 43.8228 96.8364 43.2992 96.8364 42.5295" fill="#2A338C"/>
</svg>
